<svg width="160" height="40" viewBox="0 0 160 40" fill="none" xmlns="http://www.w3.org/2000/svg">
<path fill-rule="evenodd" clip-rule="evenodd" d="M58.9593 1.56365C56.9236 2.60269 55.6142 4.8108 55.3377 7.67263L55.0807 10.329L53.1949 8.68442C50.2896 6.15076 47.1615 4.99585 43.1483 4.97646C38.1086 4.95234 34.4422 6.68286 31.693 10.384L30.5024 11.9877L29.8326 9.01574C29.4642 7.38115 28.7101 5.47186 28.1559 4.77253C24.9265 0.69393 19.1041 1.39956 16.9566 6.13031L16.0209 8.1911L14.8956 6.51196C14.2766 5.58825 12.879 4.39822 11.7897 3.86769C10.0238 3.00793 9.56885 2.9791 7.59024 3.60557C3.74807 4.82181 2.76852 7.2438 1.30185 19.1509C0.998906 21.6143 0.835825 25.4958 0.940323 27.7762C1.12399 31.7956 1.18943 31.977 3.09521 33.7112C4.70597 35.178 5.47704 35.5004 7.37174 35.5004C11.0519 35.5004 14.048 32.3314 14.048 28.4399C14.048 27.2132 14.2312 27.1125 16.4578 27.1125C17.7831 27.1125 19.2862 26.8897 19.7981 26.6177C20.6156 26.1831 20.879 26.6376 21.9572 30.345C23.349 35.1292 24.8721 37.2582 27.5236 38.1274C30.8956 39.2325 35.6867 36.3298 35.6867 33.1812V31.9911L38.4564 33.3526C40.7058 34.4582 41.9692 34.7119 45.1855 34.702C49.5164 34.6884 52.2486 33.6467 54.6463 31.0952C55.3504 30.3466 56.0908 29.7338 56.2924 29.7338C56.4935 29.7338 56.7938 30.7361 56.9595 31.9613C57.187 33.6483 57.7338 34.6202 59.2094 35.9638C61.1321 37.7138 61.2107 37.7342 64.9157 37.4417C66.9819 37.2792 70.7882 36.5295 73.3743 35.7767L78.0767 34.4079L79.7756 36.044C82.9633 39.1135 87.785 38.5394 90.0682 34.8194C90.635 33.8967 91.0995 32.638 91.1005 32.0231C91.1021 31.2378 91.5085 30.8273 92.4637 30.6459C93.9193 30.3697 94.0069 30.4929 94.5131 33.5193C95.4731 39.2639 102.441 41.3494 106.128 36.9961C107.249 35.6734 107.776 35.4312 109.004 35.6755C112.02 36.2747 115.679 34.346 116.572 31.686C116.687 31.3437 117.705 32.0373 118.862 33.2451C122.278 36.8115 126.134 36.9436 129.093 33.5958L130.748 31.7238L132.696 33.8024C135.664 36.9709 137.713 37.8459 142.033 37.7903C149.507 37.6944 155.372 33.102 158.062 25.2363L159.124 22.1323L159.312 26.3262L159.501 30.5201L159.607 26.0043C159.759 19.521 159.026 16.1706 157.068 14.3997C156.192 13.6065 155.139 12.958 154.729 12.958C154.149 12.958 154.041 12.3478 154.242 10.2058C154.709 5.23963 151.714 2.47268 145.876 2.47373C142.424 2.47425 137.553 4.65772 134.956 7.36962C132.992 9.42045 132.269 9.42045 132.269 7.37014C132.269 6.55442 131.574 5.34762 130.474 4.25563C128.924 2.71593 128.329 2.4732 126.106 2.4732C124.627 2.4732 123.031 2.8213 122.356 3.29155C120.848 4.34003 119.602 6.73634 119.602 8.58743C119.602 10.0333 119.599 10.0322 117.095 7.62545C113.966 4.61683 112.847 4.04593 110.084 4.04593C106.901 4.04593 104.571 6.448 104.041 10.2755L103.655 13.0713L102.356 10.7866C99.5084 5.7754 95.5269 3.03047 91.0762 3.00898C85.1272 2.98067 80.4744 9.41888 79.2162 19.4214L78.8367 22.4395L76.6195 22.1092C75.4004 21.9278 73.3864 22.051 72.144 22.3834C70.9017 22.7157 69.8166 22.9128 69.7321 22.8222C69.6482 22.7309 69.3437 18.8647 69.0555 14.2304C68.4802 4.97226 67.8986 3.05144 65.2593 1.69576C63.3931 0.737442 60.6893 0.6803 58.9593 1.56365ZM60.228 4.14816C59.6475 4.47528 58.9978 4.999 58.7846 5.31197C58.222 6.13713 58.3027 18.0112 58.9181 24.9128C59.554 32.0498 60.3325 34.2192 62.422 34.6737C64.5895 35.1455 73.5574 33.2991 76.6955 31.7353C78.3543 30.9086 79.0014 28.7241 78.1696 26.7587C77.2465 24.5784 75.6954 24.3236 71.108 25.5991C67.9092 26.4887 67.1297 26.5568 66.7618 25.9802C66.5153 25.5938 66.2958 21.975 66.2742 17.9383C66.2245 8.76358 65.7559 5.72769 64.1968 4.47319C62.8458 3.38643 61.7406 3.29626 60.228 4.14816ZM20.2678 6.01183C19.825 6.51668 18.8186 8.87576 18.0317 11.2542C17.2442 13.6333 16.4853 15.5792 16.3454 15.5792C16.205 15.5792 15.2756 13.8277 14.2803 11.6873C13.2849 9.54732 12.0958 7.42414 11.6382 6.9691C10.369 5.70882 7.95809 5.93215 6.78064 7.41942C5.44432 9.10643 3.98503 18.0164 3.85573 25.2709C3.76179 30.5741 3.8209 30.9164 5.00258 31.8716C6.60806 33.1702 8.49325 33.1544 9.82588 31.8307C10.6539 31.0082 10.883 30.0771 10.8888 27.5057C10.8925 25.7039 11.0424 23.6861 11.2213 23.0224L11.5464 21.8156L12.7455 22.9343C13.4047 23.5498 14.8867 24.1784 16.0388 24.332C17.8897 24.5789 18.3752 24.3944 20.2061 22.7514L22.2786 20.8914L23.7786 26.4924C24.6035 29.5728 25.6062 32.7382 26.0063 33.5272C27.2835 36.0446 31.4882 36.1248 32.6219 33.653C33.1048 32.6003 32.9576 31.5036 31.8323 27.7699C31.0713 25.2457 29.4901 19.4062 28.3179 14.7929C26.9594 9.44509 25.8638 6.16753 25.2943 5.74971C23.9986 4.79821 21.2046 4.94395 20.2678 6.01183ZM123.407 6.28811C122.411 7.34131 122.26 8.19163 122.128 13.4859L121.977 19.4901L119.75 15.8309C116.916 11.1751 113.405 7.37696 111.497 6.90095C109.281 6.34892 107.324 8.01181 106.773 10.9135C106.533 12.1822 106.454 17.2269 106.599 22.1244C106.846 30.4771 106.934 31.0852 108.013 31.9539C109.729 33.3342 111.934 33.135 113.243 31.4821C114.249 30.2129 114.317 29.6625 113.997 25.4533C113.804 22.906 113.759 20.8216 113.899 20.8216C114.038 20.8216 115.429 22.9647 116.989 25.5839C120.413 31.3295 122.8 33.6373 124.813 33.1476C126.75 32.6763 127.298 31.9833 128.337 28.6853C128.997 26.5914 129.312 23.2903 129.485 16.6277C129.714 7.82047 129.679 7.40632 128.601 6.27395C127.144 4.74369 124.862 4.74998 123.407 6.28811ZM142.824 5.68366C139.129 6.78037 136.105 9.65112 133.859 14.1952C129.977 22.0484 131.932 31.7835 137.886 34.2548C145.371 37.3615 154.145 31.371 156.056 21.8497C157.071 16.7881 155.351 15.066 149.272 15.0581C143.996 15.0513 141.144 18.1302 144.093 20.6492C144.889 21.3296 146.21 21.8701 147.076 21.8701C148.962 21.8701 148.99 22.149 147.345 24.5542C143.34 30.4084 137.485 27.1786 139.009 19.9566C140.078 14.8972 142.877 12.4338 147.557 12.4338C153.389 12.4338 152.92 5.96098 147.046 5.37278C145.74 5.24225 143.84 5.38222 142.824 5.68366ZM88.6295 6.36098C86.7564 7.19819 84.6749 10.0144 83.5217 13.2721C81.8017 18.1312 80.41 30.5044 81.2782 33.2158C81.4761 33.8338 82.3036 34.6129 83.1169 34.9479C86.1062 36.1777 88.4638 33.7285 88.4638 29.3935V27.6368H91.4013C93.0168 27.6368 94.7833 27.4004 95.3269 27.1115C96.212 26.6407 96.3513 26.8468 96.66 29.0774C97.2596 33.4134 97.9673 35.4653 99.063 36.0482C100.677 36.9059 102.762 36.4383 103.838 34.9762C104.748 33.7411 104.759 33.339 104.044 27.9954C103.051 20.5836 101.994 16.5984 99.9217 12.4527C97.2454 7.09963 92.593 4.59009 88.6295 6.36098ZM37.7845 8.89516C36.4102 9.58559 34.7778 11.0178 33.8463 12.3499C32.4097 14.4049 32.2577 15.0136 32.2736 18.6408C32.2936 23.3296 33.4004 25.9304 36.5406 28.6695C42.4564 33.8286 50.5798 33.0344 54.3793 26.9259C56.7278 23.1503 56.892 18.9407 54.8421 15.0644C51.4565 8.66397 43.7747 5.88549 37.7845 8.89516ZM89.7705 15.2657C89.3583 16.2466 88.8649 18.0159 88.6749 19.1975C88.3513 21.2075 88.4099 21.3454 89.5837 21.3401C92.1202 21.3286 94.8962 20.6507 95.1554 19.9802C95.3016 19.6012 94.8192 17.9839 94.0829 16.3866C92.4505 12.8448 90.9527 12.4558 89.7705 15.2657ZM41.6241 16.3771C38.9171 18.2791 41.0578 23.4429 44.5532 23.4429C47.6475 23.4429 48.8683 19.9425 46.6379 17.4628C45.0852 15.7365 43.1361 15.3145 41.6241 16.3771ZM91.4626 16.9695C90.8129 17.6143 91.0863 18.7247 91.8943 18.7247C92.7735 18.7247 92.8833 18.2728 92.2458 17.2752C92.013 16.9103 91.6605 16.7729 91.4626 16.9695ZM42.7973 18.7478C42.3714 19.4319 43.4855 20.8216 44.4593 20.8216C45.3549 20.8216 45.4087 19.6793 44.5532 18.8295C43.7742 18.0558 43.2433 18.0311 42.7973 18.7478ZM1.04641 25.8019C1.04799 28.6853 1.13665 29.7977 1.24326 28.2743C1.3504 26.7513 1.34935 24.3923 1.24115 23.0318C1.13243 21.672 1.04535 22.9186 1.04641 25.8019ZM141.769 23.6557C141.769 24.6774 142.442 25.0502 143.317 24.5134C143.862 24.1778 143.767 23.944 142.895 23.4806C141.981 22.9946 141.769 23.0277 141.769 23.6557Z" fill="#EA4C37"/>
</svg>
